<svg xmlns="http://www.w3.org/2000/svg" width="512" height="512"><path fill="#007bff" d="M36 386c-2-96 1-218 126-291 49-30 154-33 201 17 43 46 26 94 2 114-42 35-93 12-109 6C61 155 40 386 36 386z"/><path fill="#007bff" d="M219 510c-78-11-111-45-130-78-8-16-11-37-12-57 0-20 4-38 11-53 13-32 54-65 99-65 56 0 101 34 101 77 0 27-22 48-49 48-8 0-27-6-46-14-30-14-47-16-62-5-34 28-5 89 48 109 114 42 246-17 289-133 59-160-71-327-241-305-54 7-108 39-132 66C7 193 7 315 6 313-5 266-2 206 25 147 57 76 141 1 256 0c188 0 317 201 227 374-52 100-160 152-264 135z"/></svg>